<?xml version="1.0" encoding="UTF-8"?>
<!DOCTYPE svg PUBLIC "-//W3C//DTD SVG 1.1//EN" "http://www.w3.org/Graphics/SVG/1.1/DTD/svg11.dtd">
<svg xmlns="http://www.w3.org/2000/svg" version="1.1" width="1920px" height="1080px" style="shape-rendering:geometricPrecision; text-rendering:geometricPrecision; image-rendering:optimizeQuality; fill-rule:evenodd; clip-rule:evenodd" xmlns:xlink="http://www.w3.org/1999/xlink">
<g><path style="opacity:0.992" fill="#6b9dda" d="M 902.5,65.5 C 1044.53,61.1695 1184.19,77.1695 1321.5,113.5C 1321.5,157.833 1321.5,202.167 1321.5,246.5C 1228.11,230.623 1134.11,220.123 1039.5,215C 889.218,207.496 740.218,217.996 592.5,246.5C 592.5,202.167 592.5,157.833 592.5,113.5C 694.158,85.8361 797.491,69.8361 902.5,65.5 Z"/></g>
<g><path style="opacity:1" fill="#f5f8fc" d="M 901.5,79.5 C 902.5,79.5 903.5,79.5 904.5,79.5C 945.84,79.2949 987.173,79.6283 1028.5,80.5C 1030.5,80.5 1032.5,80.5 1034.5,80.5C 1054.34,82.2725 1074.34,83.9391 1094.5,85.5C 1095.5,85.5 1096.5,85.5 1097.5,85.5C 1115.01,87.631 1132.68,89.631 1150.5,91.5C 1159.93,93.5613 1169.6,94.8947 1179.5,95.5C 1183.94,96.8015 1188.61,97.4681 1193.5,97.5C 1204.28,100.021 1215.28,102.021 1226.5,103.5C 1254.98,108.605 1283.32,114.605 1311.5,121.5C 1312.5,160.161 1312.83,198.828 1312.5,237.5C 1310.59,237.784 1308.92,237.451 1307.5,236.5C 1307.5,199.167 1307.5,161.833 1307.5,124.5C 1306.5,124.5 1305.5,124.5 1304.5,124.5C 1273.45,116.906 1242.12,110.572 1210.5,105.5C 1210.08,104.778 1209.42,104.278 1208.5,104C 1197.86,102.171 1187.2,100.671 1176.5,99.5C 1133.67,93.5121 1090.67,89.1788 1047.5,86.5C 1038.06,84.7615 1028.39,84.0948 1018.5,84.5C 1008.81,84.5784 999.148,84.2451 989.5,83.5C 960.67,82.3362 931.67,82.1695 902.5,83C 897.649,83.1745 892.982,83.6745 888.5,84.5C 793.457,88.3157 699.79,101.649 607.5,124.5C 605.506,161.485 604.84,198.818 605.5,236.5C 604.081,237.451 602.415,237.784 600.5,237.5C 600.5,198.5 600.5,159.5 600.5,120.5C 665.892,105.823 731.892,94.3227 798.5,86C 815.503,84.7915 832.503,83.6248 849.5,82.5C 867.024,82.1564 884.357,81.1564 901.5,79.5 Z"/></g>
<g><path style="opacity:1" fill="#adc8ea" d="M 904.5,79.5 C 921.83,78.8334 939.33,78.5001 957,78.5C 981.021,78.2861 1004.85,78.9527 1028.5,80.5C 987.173,79.6283 945.84,79.2949 904.5,79.5 Z"/></g>
<g><path style="opacity:1" fill="#d6e3f4" d="M 901.5,79.5 C 884.357,81.1564 867.024,82.1564 849.5,82.5C 866.63,80.5968 883.963,79.5968 901.5,79.5 Z"/></g>
<g><path style="opacity:1" fill="#8eb3e2" d="M 1034.5,80.5 C 1048.18,80.6988 1061.84,81.1988 1075.5,82C 1082.01,82.8913 1088.35,84.0579 1094.5,85.5C 1074.34,83.9391 1054.34,82.2725 1034.5,80.5 Z"/></g>
<g><path style="opacity:1" fill="#cadcf1" d="M 989.5,83.5 C 955.826,83.3314 922.159,83.6647 888.5,84.5C 892.982,83.6745 897.649,83.1745 902.5,83C 931.67,82.1695 960.67,82.3362 989.5,83.5 Z"/></g>
<g><path style="opacity:1" fill="#c0d5ef" d="M 1018.5,84.5 C 1028.39,84.0948 1038.06,84.7615 1047.5,86.5C 1037.65,86.2329 1027.99,85.5662 1018.5,84.5 Z"/></g>
<g><path style="opacity:1" fill="#9bbce6" d="M 1097.5,85.5 C 1115.47,86.0229 1133.13,88.0229 1150.5,91.5C 1132.68,89.631 1115.01,87.631 1097.5,85.5 Z"/></g>
<g><path style="opacity:1" fill="#a6c3e8" d="M 1150.5,91.5 C 1160.42,91.9469 1170.09,93.2802 1179.5,95.5C 1169.6,94.8947 1159.93,93.5613 1150.5,91.5 Z"/></g>
<g><path style="opacity:1" fill="#97b9e4" d="M 1193.5,97.5 C 1196.52,97.3354 1199.52,97.502 1202.5,98C 1210.75,99.3122 1218.75,101.146 1226.5,103.5C 1215.28,102.021 1204.28,100.021 1193.5,97.5 Z"/></g>
<g><path style="opacity:1" fill="#c9daf1" d="M 1176.5,99.5 C 1187.2,100.671 1197.86,102.171 1208.5,104C 1209.42,104.278 1210.08,104.778 1210.5,105.5C 1198.93,104.128 1187.6,102.128 1176.5,99.5 Z"/></g>
<g><path style="opacity:1" fill="#f8fafd" d="M 937.5,120.5 C 937.5,136.833 937.5,153.167 937.5,169.5C 935.5,169.5 933.5,169.5 931.5,169.5C 930.504,154.676 930.171,139.676 930.5,124.5C 922.833,124.5 915.167,124.5 907.5,124.5C 907.94,139.83 908.273,155.164 908.5,170.5C 905.833,170.5 903.167,170.5 900.5,170.5C 900.519,153.824 900.186,137.158 899.5,120.5C 912.167,120.5 924.833,120.5 937.5,120.5 Z"/></g>
<g><path style="opacity:1" fill="#f8fafd" d="M 1117.5,123.5 C 1120.83,123.5 1124.17,123.5 1127.5,123.5C 1127.86,125.766 1127.19,127.599 1125.5,129C 1114.35,127.403 1106.68,131.736 1102.5,142C 1102.67,142.5 1102.83,143 1103,143.5C 1107.65,139.427 1112.98,138.427 1119,140.5C 1123.75,142.25 1126.75,145.583 1128,150.5C 1129.4,157.717 1128.07,164.384 1124,170.5C 1117.9,175.604 1111.06,176.771 1103.5,174C 1099.34,170.846 1096.84,166.679 1096,161.5C 1092.66,147.519 1096.49,136.019 1107.5,127C 1110.85,125.514 1114.18,124.347 1117.5,123.5 Z"/></g>
<g><path style="opacity:1" fill="#8db4e3" d="M 1304.5,124.5 C 1305.5,124.5 1306.5,124.5 1307.5,124.5C 1307.5,161.833 1307.5,199.167 1307.5,236.5C 1307.15,199.116 1306.15,161.783 1304.5,124.5 Z"/></g>
<g><path style="opacity:1" fill="#8cb3e2" d="M 607.5,124.5 C 606.839,161.931 606.173,199.264 605.5,236.5C 604.84,198.818 605.506,161.485 607.5,124.5 Z"/></g>
<g><path style="opacity:1" fill="#b6cdec" d="M 1008.5,133.5 C 1000.17,133.5 991.833,133.5 983.5,133.5C 983.5,134.5 983.5,135.5 983.5,136.5C 982.566,135.432 982.232,134.099 982.5,132.5C 991.349,132.174 1000.02,132.507 1008.5,133.5 Z"/></g>
<g><path style="opacity:1" fill="#f8fafd" d="M 957.5,132.5 C 971.097,132.097 977.763,138.763 977.5,152.5C 968.833,152.5 960.167,152.5 951.5,152.5C 951.469,160.968 955.636,165.301 964,165.5C 967.205,165.607 970.205,164.94 973,163.5C 975.324,167.212 974.158,169.046 969.5,169C 950.667,171.5 942.5,163.333 945,144.5C 947.769,138.895 951.936,134.895 957.5,132.5 Z"/></g>
<g><path style="opacity:1" fill="#fdfefe" d="M 1008.5,133.5 C 1010.17,133.5 1011.83,133.5 1013.5,133.5C 1013.5,134.5 1013.5,135.5 1013.5,136.5C 1009.5,136.5 1005.5,136.5 1001.5,136.5C 1001.5,139.833 1001.5,143.167 1001.5,146.5C 1001.5,154.167 1001.5,161.833 1001.5,169.5C 999.167,169.5 996.833,169.5 994.5,169.5C 994.5,163.167 994.5,156.833 994.5,150.5C 994.5,145.833 994.5,141.167 994.5,136.5C 990.833,136.5 987.167,136.5 983.5,136.5C 983.5,135.5 983.5,134.5 983.5,133.5C 991.833,133.5 1000.17,133.5 1008.5,133.5 Z"/></g>
<g><path style="opacity:1" fill="#f7f9fd" d="M 1024.5,133.5 C 1038.39,133.583 1044.72,140.583 1043.5,154.5C 1035.17,154.5 1026.83,154.5 1018.5,154.5C 1018.18,162.846 1022.18,166.846 1030.5,166.5C 1033.04,166.414 1035.54,166.08 1038,165.5C 1040.02,166.032 1040.85,167.365 1040.5,169.5C 1032.14,171.512 1024.14,170.678 1016.5,167C 1006.44,152.747 1009.1,141.581 1024.5,133.5 Z"/></g>
<g><path style="opacity:1" fill="#f8fafd" d="M 867.5,134.5 C 870.833,134.5 874.167,134.5 877.5,134.5C 877.5,135.833 877.5,137.167 877.5,138.5C 873.833,138.5 870.167,138.5 866.5,138.5C 866.759,149.836 867.093,161.169 867.5,172.5C 865.167,172.5 862.833,172.5 860.5,172.5C 859.875,161.497 859.208,150.497 858.5,139.5C 854.833,139.5 851.167,139.5 847.5,139.5C 847.5,138.5 847.5,137.5 847.5,136.5C 854.354,136.265 861.021,135.598 867.5,134.5 Z"/></g>
<g><path style="opacity:1" fill="#fafcfd" d="M 1059.5,135.5 C 1059.34,137.199 1059.51,138.866 1060,140.5C 1065.58,136.182 1071.75,135.349 1078.5,138C 1085.63,144.84 1087.47,153.007 1084,162.5C 1080.09,170.811 1073.59,173.977 1064.5,172C 1062.48,171.326 1060.82,170.159 1059.5,168.5C 1058.51,173.792 1058.17,179.125 1058.5,184.5C 1056.17,184.5 1053.83,184.5 1051.5,184.5C 1051.5,181.167 1051.5,177.833 1051.5,174.5C 1051.46,165.815 1051.8,157.149 1052.5,148.5C 1053.48,144.366 1053.82,140.032 1053.5,135.5C 1055.5,135.5 1057.5,135.5 1059.5,135.5 Z"/></g>
<g><path style="opacity:1" fill="#f4f7fc" d="M 723.5,135.5 C 724.461,137.265 724.795,139.265 724.5,141.5C 700.567,139.929 692.067,150.596 699,173.5C 702.428,179.881 707.761,182.881 715,182.5C 719.775,182.681 724.275,181.681 728.5,179.5C 730.27,180.82 730.603,182.32 729.5,184C 721.029,187.558 712.362,188.225 703.5,186C 691.916,179.665 687.083,169.831 689,156.5C 691.404,147.763 696.904,141.929 705.5,139C 710.769,137.894 716.103,137.227 721.5,137C 722.416,136.722 723.082,136.222 723.5,135.5 Z"/></g>
<g><path style="opacity:1" fill="#f9fafd" d="M 834.5,136.5 C 837.187,136.336 839.854,136.503 842.5,137C 838.167,142.667 833.833,148.333 829.5,154C 837.832,157.504 843.166,163.67 845.5,172.5C 843.235,173.647 840.902,173.814 838.5,173C 836.419,168.836 834.086,164.836 831.5,161C 828.392,159.241 825.059,158.408 821.5,158.5C 822.032,164.152 822.365,169.819 822.5,175.5C 820.167,175.5 817.833,175.5 815.5,175.5C 814.335,163.186 813.335,150.853 812.5,138.5C 815.167,138.5 817.833,138.5 820.5,138.5C 820.5,143.833 820.5,149.167 820.5,154.5C 821.675,154.719 822.675,154.386 823.5,153.5C 827.613,148.067 831.28,142.401 834.5,136.5 Z"/></g>
<g><path style="opacity:1" fill="#72a1db" d="M 958.5,136.5 C 966.802,136.808 970.469,141.141 969.5,149.5C 963.5,149.5 957.5,149.5 951.5,149.5C 951.51,143.807 953.843,139.474 958.5,136.5 Z"/></g>
<g><path style="opacity:1" fill="#c0d4ee" d="M 1059.5,135.5 C 1057.5,135.5 1055.5,135.5 1053.5,135.5C 1053.82,140.032 1053.48,144.366 1052.5,148.5C 1052.5,143.833 1052.5,139.167 1052.5,134.5C 1055.06,134.198 1057.39,134.532 1059.5,135.5 Z"/></g>
<g><path style="opacity:1" fill="#71a0db" d="M 1025.5,137.5 C 1033.8,137.808 1037.47,142.141 1036.5,150.5C 1030.5,150.5 1024.5,150.5 1018.5,150.5C 1018.5,144.827 1020.83,140.494 1025.5,137.5 Z"/></g>
<g><path style="opacity:1" fill="#f8fafd" d="M 793.5,140.5 C 795.833,140.5 798.167,140.5 800.5,140.5C 801.754,152.807 802.754,165.14 803.5,177.5C 801.167,177.5 798.833,177.5 796.5,177.5C 795.725,172.203 795.392,166.87 795.5,161.5C 790.901,161.2 786.401,161.533 782,162.5C 781.531,168.182 781.698,173.848 782.5,179.5C 779.833,179.5 777.167,179.5 774.5,179.5C 773.867,167.134 772.867,154.801 771.5,142.5C 774.119,142.232 776.619,142.565 779,143.5C 779.499,148.489 779.666,153.489 779.5,158.5C 784.473,157.836 789.473,157.503 794.5,157.5C 793.968,151.848 793.635,146.181 793.5,140.5 Z"/></g>
<g><path style="opacity:1" fill="#6f9fda" d="M 1066.5,139.5 C 1074.83,140.001 1078.83,144.501 1078.5,153C 1078.37,157.44 1077.2,161.607 1075,165.5C 1068.82,170.237 1063.82,169.237 1060,162.5C 1057.76,153.455 1059.93,145.789 1066.5,139.5 Z"/></g>
<g><path style="opacity:1" fill="#f8fafd" d="M 1131.5,140.5 C 1133.83,140.5 1136.17,140.5 1138.5,140.5C 1140.69,149.913 1143.19,159.246 1146,168.5C 1149.56,160.378 1153.39,152.378 1157.5,144.5C 1159.74,143.526 1162.08,143.192 1164.5,143.5C 1158.73,157.035 1151.9,170.035 1144,182.5C 1140.58,187.753 1135.74,190.753 1129.5,191.5C 1129.19,189.774 1129.02,188.107 1129,186.5C 1135.12,184.546 1138.96,180.546 1140.5,174.5C 1137.5,163.163 1134.5,151.83 1131.5,140.5 Z"/></g>
<g><path style="opacity:1" fill="#a8c4e8" d="M 1013.5,136.5 C 1010.04,137.482 1006.37,137.815 1002.5,137.5C 1002.81,140.713 1002.48,143.713 1001.5,146.5C 1001.5,143.167 1001.5,139.833 1001.5,136.5C 1005.5,136.5 1009.5,136.5 1013.5,136.5 Z"/></g>
<g><path style="opacity:1" fill="#6e9fda" d="M 1109.5,142.5 C 1118.04,142.884 1121.71,147.384 1120.5,156C 1121.04,160.953 1119.87,165.453 1117,169.5C 1112.66,172.448 1108.66,172.115 1105,168.5C 1102.12,161.973 1101.79,155.307 1104,148.5C 1105.36,145.977 1107.19,143.977 1109.5,142.5 Z"/></g>
<g><path style="opacity:1" fill="#f8fafd" d="M 1170.5,144.5 C 1172.81,144.993 1175.14,145.326 1177.5,145.5C 1176.66,150.837 1178,151.67 1181.5,148C 1194.04,145.426 1201.04,150.426 1202.5,163C 1202,177.51 1194.67,184.177 1180.5,183C 1178.41,182.208 1176.58,181.041 1175,179.5C 1173.71,184.736 1172.87,190.069 1172.5,195.5C 1170.14,195.326 1167.81,194.993 1165.5,194.5C 1167.41,177.867 1169.07,161.201 1170.5,144.5 Z"/></g>
<g><path style="opacity:1" fill="#f7f9fd" d="M 743.5,145.5 C 752.304,144.484 758.138,148.15 761,156.5C 761.735,164.906 762.901,173.239 764.5,181.5C 761.028,182.037 758.195,181.037 756,178.5C 754.421,180.041 752.587,181.208 750.5,182C 746.5,182.667 742.5,182.667 738.5,182C 733.583,177.491 733.249,172.658 737.5,167.5C 742.203,163.815 747.536,161.815 753.5,161.5C 753.963,152.793 749.963,149.293 741.5,151C 739.667,152.167 737.833,153.333 736,154.5C 734.813,152.956 734.48,151.289 735,149.5C 737.876,148.052 740.709,146.719 743.5,145.5 Z"/></g>
<g><path style="opacity:1" fill="#6e9fda" d="M 1183.5,150.5 C 1191.43,150.823 1195.09,154.99 1194.5,163C 1194.76,167.872 1193.6,172.372 1191,176.5C 1181.76,182.127 1176.59,179.46 1175.5,168.5C 1175.3,161.036 1177.97,155.036 1183.5,150.5 Z"/></g>
<g><path style="opacity:1" fill="#f7f9fd" d="M 1213.5,151.5 C 1221.17,152.167 1228.83,152.833 1236.5,153.5C 1236.5,154.833 1236.5,156.167 1236.5,157.5C 1231.39,157.57 1226.39,156.903 1221.5,155.5C 1218.79,165.648 1216.95,175.981 1216,186.5C 1214.58,188.363 1212.75,188.863 1210.5,188C 1209.38,187.161 1208.71,185.994 1208.5,184.5C 1210.41,173.525 1212.08,162.525 1213.5,151.5 Z"/></g>
<g><path style="opacity:1" fill="#bcd1ed" d="M 937.5,120.5 C 938.497,136.992 938.83,153.658 938.5,170.5C 935.941,170.802 933.607,170.468 931.5,169.5C 933.5,169.5 935.5,169.5 937.5,169.5C 937.5,153.167 937.5,136.833 937.5,120.5 Z"/></g>
<g><path style="opacity:1" fill="#ecf2fa" d="M 876.5,154.5 C 882.5,154.5 888.5,154.5 894.5,154.5C 894.5,155.833 894.5,157.167 894.5,158.5C 888.529,159.241 882.529,159.575 876.5,159.5C 876.5,157.833 876.5,156.167 876.5,154.5 Z"/></g>
<g><path style="opacity:1" fill="#71a0db" d="M 749.5,165.5 C 754.984,165.438 756.817,168.105 755,173.5C 752.459,178.069 748.625,179.569 743.5,178C 741.556,175.847 741.056,173.347 742,170.5C 744.17,168.177 746.67,166.51 749.5,165.5 Z"/></g>
<g><path style="opacity:1" fill="#b8cfec" d="M 994.5,150.5 C 994.5,156.833 994.5,163.167 994.5,169.5C 996.833,169.5 999.167,169.5 1001.5,169.5C 999.052,170.473 996.385,170.806 993.5,170.5C 993.176,163.646 993.509,156.979 994.5,150.5 Z"/></g>
<g><path style="opacity:1" fill="#a7c4e8" d="M 1051.5,174.5 C 1051.5,177.833 1051.5,181.167 1051.5,184.5C 1053.83,184.5 1056.17,184.5 1058.5,184.5C 1056.05,185.473 1053.39,185.806 1050.5,185.5C 1050.19,181.629 1050.52,177.962 1051.5,174.5 Z"/></g>
<g><path style="opacity:0.993" fill="#2553a6" d="M 897.5,234.5 C 1038.81,232.075 1179.14,242.575 1318.5,266C 1354.75,272.416 1390.75,279.916 1426.5,288.5C 1419.57,357.141 1412.9,425.808 1406.5,494.5C 1359.55,486.786 1312.55,479.286 1265.5,472C 1157.66,454.916 1049.16,446.083 940,445.5C 842.269,445.63 745.103,453.13 648.5,468C 602.705,475.188 557.039,483.021 511.5,491.5C 506.164,424.136 500.497,356.803 494.5,289.5C 626.788,255.34 761.121,237.007 897.5,234.5 Z"/></g>
<g><path style="opacity:1" fill="#eef1f7" d="M 954.5,303.5 C 958.109,303.775 960.109,305.775 960.5,309.5C 965.762,312.707 969.096,311.207 970.5,305C 976.336,305.303 977.003,307.636 972.5,312C 965.673,315.833 959.506,315 954,309.5C 953.322,307.402 953.489,305.402 954.5,303.5 Z"/></g>
<g><path style="opacity:1" fill="#fafafc" d="M 1050.5,310.5 C 1053.9,310.18 1057.23,310.513 1060.5,311.5C 1069.75,329.658 1079.25,347.658 1089,365.5C 1090.89,348.531 1092.39,331.531 1093.5,314.5C 1096.83,314.5 1100.17,314.5 1103.5,314.5C 1101.33,338.152 1099.33,361.818 1097.5,385.5C 1094.22,385.277 1091.05,384.61 1088,383.5C 1078.67,366.167 1069.33,348.833 1060,331.5C 1057.62,348.085 1056.12,364.752 1055.5,381.5C 1052.17,381.5 1048.83,381.5 1045.5,381.5C 1047.55,357.86 1049.22,334.193 1050.5,310.5 Z"/></g>
<g><path style="opacity:1" fill="#f7f8fb" d="M 1117.5,316.5 C 1122.27,316.191 1126.93,316.691 1131.5,318C 1133.05,319.214 1134.22,320.714 1135,322.5C 1135.67,328.167 1135.67,333.833 1135,339.5C 1130.98,347.377 1124.81,349.543 1116.5,346C 1113.86,344.039 1112.03,341.539 1111,338.5C 1108.71,329.601 1110.87,322.268 1117.5,316.5 Z"/></g>
<g><path style="opacity:1" fill="#f9fafc" d="M 914.5,318.5 C 914.5,323.5 914.5,328.5 914.5,333.5C 913.5,333.5 912.5,333.5 911.5,333.5C 910.878,329.776 908.878,326.943 905.5,325C 900.264,323.661 894.93,323.161 889.5,323.5C 888.508,330.648 888.175,337.981 888.5,345.5C 890.735,345.795 892.735,345.461 894.5,344.5C 897.913,343.054 899.913,340.387 900.5,336.5C 901.689,335.571 903.022,335.238 904.5,335.5C 904.5,343.167 904.5,350.833 904.5,358.5C 903.325,358.719 902.325,358.386 901.5,357.5C 899.831,351.332 895.831,348.666 889.5,349.5C 889.334,355.842 889.5,362.175 890,368.5C 890.5,370.333 891.667,371.5 893.5,372C 898.589,372.826 903.589,372.492 908.5,371C 912.291,368.599 914.458,365.099 915,360.5C 916.011,359.663 917.178,359.33 918.5,359.5C 918.5,362.5 918.5,365.5 918.5,368.5C 918.5,371.167 918.5,373.833 918.5,376.5C 903.324,376.171 888.324,376.504 873.5,377.5C 871.5,377.5 869.5,377.5 867.5,377.5C 867.281,376.325 867.614,375.325 868.5,374.5C 871.188,373.995 873.355,372.662 875,370.5C 875.667,355.833 875.667,341.167 875,326.5C 873.188,323.179 870.355,321.845 866.5,322.5C 866.5,321.5 866.5,320.5 866.5,319.5C 882.513,319.635 898.513,319.301 914.5,318.5 Z"/></g>
<g><path style="opacity:1" fill="#6f8ac1" d="M 914.5,318.5 C 915.488,323.64 915.821,328.974 915.5,334.5C 913.901,334.768 912.568,334.434 911.5,333.5C 912.5,333.5 913.5,333.5 914.5,333.5C 914.5,328.5 914.5,323.5 914.5,318.5 Z"/></g>
<g><path style="opacity:1" fill="#fbfbfd" d="M 933.5,319.5 C 941.65,320.493 949.983,320.826 958.5,320.5C 958.5,321.5 958.5,322.5 958.5,323.5C 955.039,323.146 952.539,324.479 951,327.5C 950.501,332.489 950.334,337.489 950.5,342.5C 949.186,347.348 949.186,352.348 950.5,357.5C 951.107,357.376 951.44,357.043 951.5,356.5C 959.78,349.557 967.78,342.224 975.5,334.5C 978.538,327.234 976.204,323.9 968.5,324.5C 968.5,323.167 968.5,321.833 968.5,320.5C 978.476,321.332 988.476,321.666 998.5,321.5C 998.5,322.5 998.5,323.5 998.5,324.5C 994.317,323.846 991.484,325.512 990,329.5C 989.333,343.5 989.333,357.5 990,371.5C 991.318,374.941 993.818,376.275 997.5,375.5C 997.5,376.833 997.5,378.167 997.5,379.5C 987.198,378.6 976.865,378.267 966.5,378.5C 966.5,377.167 966.5,375.833 966.5,374.5C 969.685,374.98 972.519,374.314 975,372.5C 975.5,366.175 975.666,359.842 975.5,353.5C 976.812,348.985 976.812,344.318 975.5,339.5C 974.893,339.624 974.56,339.957 974.5,340.5C 966.846,348.152 958.846,355.485 950.5,362.5C 949.177,365.913 949.344,369.247 951,372.5C 952.789,374.229 954.956,374.896 957.5,374.5C 957.5,375.833 957.5,377.167 957.5,378.5C 947.532,377.604 937.532,377.271 927.5,377.5C 927.5,376.167 927.5,374.833 927.5,373.5C 932.104,374.621 934.937,372.955 936,368.5C 936.833,353.822 936.666,339.155 935.5,324.5C 933.591,323.652 931.591,323.318 929.5,323.5C 929.5,322.167 929.5,320.833 929.5,319.5C 930.833,319.5 932.167,319.5 933.5,319.5 Z"/></g>
<g><path style="opacity:1" fill="#7e96c7" d="M 933.5,319.5 C 942.167,319.5 950.833,319.5 959.5,319.5C 959.768,321.099 959.434,322.432 958.5,323.5C 958.5,322.5 958.5,321.5 958.5,320.5C 949.983,320.826 941.65,320.493 933.5,319.5 Z"/></g>
<g><path style="opacity:1" fill="#fafbfd" d="M 786.5,326.5 C 786.5,325.5 786.5,324.5 786.5,323.5C 791.695,323.821 796.695,323.487 801.5,322.5C 806.547,322.663 811.547,322.329 816.5,321.5C 816.5,322.833 816.5,324.167 816.5,325.5C 813.348,324.959 810.848,325.959 809,328.5C 808.667,342.508 809,356.508 810,370.5C 810.45,372.519 811.283,374.352 812.5,376C 818.833,376.667 825.167,376.667 831.5,376C 832.766,375.691 833.933,375.191 835,374.5C 835.512,359.487 835.179,344.487 834,329.5C 832.937,325.045 830.104,323.379 825.5,324.5C 825.5,323.5 825.5,322.5 825.5,321.5C 835.512,321.447 845.512,321.113 855.5,320.5C 855.5,321.5 855.5,322.5 855.5,323.5C 853.064,323.317 850.897,323.984 849,325.5C 848.263,340.856 848.597,356.189 850,371.5C 852.196,374.125 855.03,375.125 858.5,374.5C 858.532,380.189 858.866,385.855 859.5,391.5C 858.325,391.719 857.325,391.386 856.5,390.5C 855.234,385.44 852.234,381.94 847.5,380C 827.806,379.397 808.139,379.897 788.5,381.5C 788.5,380.167 788.5,378.833 788.5,377.5C 794.947,377.551 797.614,374.384 796.5,368C 795.893,355.15 795.06,342.317 794,329.5C 792.065,327.241 789.565,326.241 786.5,326.5 Z"/></g>
<g><path style="opacity:1" fill="#f8f9fb" d="M 1160.5,354.5 C 1161.4,353.791 1161.74,352.791 1161.5,351.5C 1164.71,351.81 1167.71,351.477 1170.5,350.5C 1172.02,350.489 1173.18,349.823 1174,348.5C 1179.88,336.748 1176.38,330.915 1163.5,331C 1160.67,333.158 1158.17,335.658 1156,338.5C 1153.23,337.652 1150.4,337.319 1147.5,337.5C 1151.41,323.803 1160.41,318.636 1174.5,322C 1185.99,327.435 1189.49,336.269 1185,348.5C 1182.37,352.4 1178.87,355.234 1174.5,357C 1183.14,362.043 1185.97,369.543 1183,379.5C 1181.26,386.237 1177.1,390.737 1170.5,393C 1158.09,395.711 1148.93,391.544 1143,380.5C 1142.5,377.854 1142.34,375.187 1142.5,372.5C 1145.88,372.46 1149.21,372.793 1152.5,373.5C 1153.8,382.163 1158.8,385.33 1167.5,383C 1170.77,382.06 1172.61,379.893 1173,376.5C 1175.7,365.704 1171.53,360.37 1160.5,360.5C 1160.5,358.5 1160.5,356.5 1160.5,354.5 Z"/></g>
<g><path style="opacity:1" fill="#8da2cd" d="M 801.5,322.5 C 796.695,323.487 791.695,323.821 786.5,323.5C 786.5,324.5 786.5,325.5 786.5,326.5C 785.566,325.432 785.232,324.099 785.5,322.5C 790.833,322.5 796.167,322.5 801.5,322.5 Z"/></g>
<g><path style="opacity:1" fill="#f9fafc" d="M 705.5,333.5 C 705.5,332.5 705.5,331.5 705.5,330.5C 708.713,330.81 711.713,330.477 714.5,329.5C 721.205,329.156 727.872,328.489 734.5,327.5C 734.719,328.675 734.386,329.675 733.5,330.5C 731.185,331.234 729.352,332.568 728,334.5C 727.521,344.897 728.187,355.23 730,365.5C 737.569,357.354 744.902,349.021 752,340.5C 752.667,337.833 752.667,335.167 752,332.5C 751.184,331.177 750.017,330.511 748.5,330.5C 747.432,329.566 746.099,329.232 744.5,329.5C 744.5,328.5 744.5,327.5 744.5,326.5C 754.202,326.296 763.868,325.63 773.5,324.5C 773.5,325.5 773.5,326.5 773.5,327.5C 770.901,327.549 768.734,328.549 767,330.5C 767.001,341.853 767.668,353.186 769,364.5C 769.109,369.056 770.109,373.389 772,377.5C 774.041,378.423 776.208,378.756 778.5,378.5C 778.64,380.124 777.973,381.29 776.5,382C 767.141,382.636 757.808,383.469 748.5,384.5C 748.5,383.167 748.5,381.833 748.5,380.5C 750.936,380.683 753.103,380.016 755,378.5C 755.349,367.103 754.683,355.77 753,344.5C 745.667,353.167 738.333,361.833 731,370.5C 729.096,378.07 731.929,381.737 739.5,381.5C 739.5,382.833 739.5,384.167 739.5,385.5C 729.496,386.106 719.496,386.773 709.5,387.5C 709.281,386.325 709.614,385.325 710.5,384.5C 712.614,383.966 714.448,382.966 716,381.5C 716.667,376.5 716.667,371.5 716,366.5C 714.961,356.506 713.961,346.506 713,336.5C 711.152,333.959 708.652,332.959 705.5,333.5 Z"/></g>
<g><path style="opacity:1" fill="#385dab" d="M 1121.5,323.5 C 1126.32,323.32 1128.32,325.653 1127.5,330.5C 1127.4,332.709 1127.06,334.876 1126.5,337C 1124.19,340.037 1121.69,340.204 1119,337.5C 1118.24,332.476 1119.07,327.809 1121.5,323.5 Z"/></g>
<g><path style="opacity:1" fill="#acbbda" d="M 714.5,329.5 C 711.713,330.477 708.713,330.81 705.5,330.5C 705.5,331.5 705.5,332.5 705.5,333.5C 704.566,332.432 704.232,331.099 704.5,329.5C 707.833,329.5 711.167,329.5 714.5,329.5 Z"/></g>
<g><path style="opacity:1" fill="#98abd2" d="M 744.5,326.5 C 744.5,327.5 744.5,328.5 744.5,329.5C 746.099,329.232 747.432,329.566 748.5,330.5C 746.833,330.5 745.167,330.5 743.5,330.5C 743.232,328.901 743.566,327.568 744.5,326.5 Z"/></g>
<g><path style="opacity:1" fill="#f8f9fc" d="M 1223.5,329.5 C 1227.53,329.672 1231.53,330.172 1235.5,331C 1228.92,339.489 1222.59,348.156 1216.5,357C 1233.24,358.094 1239.74,366.928 1236,383.5C 1231.42,398.873 1221.59,403.706 1206.5,398C 1198.67,392.535 1195.51,385.035 1197,375.5C 1198.21,369.868 1200.21,364.534 1203,359.5C 1210.1,349.616 1216.93,339.616 1223.5,329.5 Z"/></g>
<g><path style="opacity:1" fill="#f7f8fb" d="M 690.5,331.5 C 691.5,331.5 692.5,331.5 693.5,331.5C 693.5,332.833 693.5,334.167 693.5,335.5C 689.438,335.012 687.105,336.678 686.5,340.5C 687.971,352.514 689.471,364.514 691,376.5C 690.88,383.047 694.046,386.213 700.5,386C 701.337,387.011 701.67,388.178 701.5,389.5C 691.529,390.63 681.529,391.63 671.5,392.5C 671.281,391.325 671.614,390.325 672.5,389.5C 674.059,388.926 675.559,388.26 677,387.5C 676.8,371.699 675.133,356.032 672,340.5C 666.547,337.44 661.547,338.107 657,342.5C 656.305,349.354 656.472,356.187 657.5,363C 657.891,373.441 655.725,383.275 651,392.5C 646.047,398.918 640.38,399.918 634,395.5C 633.393,386.795 637.06,384.462 645,388.5C 647.151,388.357 648.818,387.357 650,385.5C 651.308,382.27 652.308,378.936 653,375.5C 653.92,365.758 653.587,356.092 652,346.5C 648.935,343.051 645.102,341.384 640.5,341.5C 640.5,340.5 640.5,339.5 640.5,338.5C 657.341,336.447 674.007,334.114 690.5,331.5 Z"/></g>
<g><path style="opacity:1" fill="#859cca" d="M 889.5,323.5 C 889.5,330.5 889.5,337.5 889.5,344.5C 891.167,344.5 892.833,344.5 894.5,344.5C 892.735,345.461 890.735,345.795 888.5,345.5C 888.175,337.981 888.508,330.648 889.5,323.5 Z"/></g>
<g><path style="opacity:1" fill="#f8f9fc" d="M 1272.5,379.5 C 1273.29,379.217 1273.96,378.717 1274.5,378C 1271.85,377.503 1269.19,377.336 1266.5,377.5C 1260.67,375.848 1256.51,372.181 1254,366.5C 1251.76,355.948 1254.26,346.781 1261.5,339C 1273.75,333.041 1283.92,335.541 1292,346.5C 1295.04,357.247 1293.38,367.247 1287,376.5C 1279.83,386.167 1272.67,395.833 1265.5,405.5C 1261.67,406.895 1258,406.562 1254.5,404.5C 1260.52,396.148 1266.52,387.815 1272.5,379.5 Z"/></g>
<g><path style="opacity:1" fill="#bcc8e1" d="M 950.5,342.5 C 950.181,347.363 950.514,352.03 951.5,356.5C 951.44,357.043 951.107,357.376 950.5,357.5C 949.186,352.348 949.186,347.348 950.5,342.5 Z"/></g>
<g><path style="opacity:1" fill="#8fa4ce" d="M 974.5,340.5 C 974.56,339.957 974.893,339.624 975.5,339.5C 976.812,344.318 976.812,348.985 975.5,353.5C 975.818,348.968 975.485,344.634 974.5,340.5 Z"/></g>
<g><path style="opacity:1" fill="#2c56a7" d="M 1269.5,345.5 C 1281.45,345.381 1285.61,351.048 1282,362.5C 1279.15,369.392 1274.32,371.225 1267.5,368C 1261.74,359.988 1262.41,352.488 1269.5,345.5 Z"/></g>
<g><path style="opacity:0.98" fill="#2552a6" d="M 1432.5,348.5 C 1474.2,358.675 1515.87,369.008 1557.5,379.5C 1557.65,380.552 1557.48,381.552 1557,382.5C 1535.12,414.425 1513.62,446.592 1492.5,479C 1505.28,515.831 1517.94,552.664 1530.5,589.5C 1470.61,573.611 1410.94,556.944 1351.5,539.5C 1372.97,527.262 1394.64,515.262 1416.5,503.5C 1422.43,451.893 1427.76,400.227 1432.5,348.5 Z"/></g>
<g><path style="opacity:0.98" fill="#2552a6" d="M 481.5,350.5 C 483.5,350.5 485.5,350.5 487.5,350.5C 491.566,400.888 496.232,451.222 501.5,501.5C 524.029,513.595 546.362,525.929 568.5,538.5C 508.738,556.976 448.738,574.643 388.5,591.5C 400.289,552.131 412.289,512.798 424.5,473.5C 404.262,442.7 383.762,412.034 363,381.5C 362.517,380.552 362.351,379.552 362.5,378.5C 402.455,369.913 442.122,360.579 481.5,350.5 Z"/></g>
<g><path style="opacity:1" fill="#f8f9fc" d="M 1108.5,351.5 C 1116.84,352.112 1125.17,352.778 1133.5,353.5C 1133.5,356.833 1133.5,360.167 1133.5,363.5C 1125.2,362.503 1116.86,361.836 1108.5,361.5C 1108.5,358.167 1108.5,354.833 1108.5,351.5 Z"/></g>
<g><path style="opacity:1" fill="#879dcb" d="M 1170.5,350.5 C 1167.71,351.477 1164.71,351.81 1161.5,351.5C 1161.74,352.791 1161.4,353.791 1160.5,354.5C 1160.5,353.167 1160.5,351.833 1160.5,350.5C 1163.83,350.5 1167.17,350.5 1170.5,350.5 Z"/></g>
<g><path style="opacity:1" fill="#2e57a8" d="M 1213.5,366.5 C 1224.43,366.984 1228.59,372.651 1226,383.5C 1222.71,390.266 1217.54,392.099 1210.5,389C 1204.72,380.647 1205.72,373.147 1213.5,366.5 Z"/></g>
<g><path style="opacity:1" fill="#758fc3" d="M 918.5,368.5 C 919.477,371.287 919.81,374.287 919.5,377.5C 904.167,377.5 888.833,377.5 873.5,377.5C 888.324,376.504 903.324,376.171 918.5,376.5C 918.5,373.833 918.5,371.167 918.5,368.5 Z"/></g>
<g><path style="opacity:1" fill="#8097c8" d="M 1266.5,377.5 C 1269.19,377.336 1271.85,377.503 1274.5,378C 1273.96,378.717 1273.29,379.217 1272.5,379.5C 1270.5,378.833 1268.5,378.167 1266.5,377.5 Z"/></g>
<g><path style="opacity:0.994" fill="#6b9dda" d="M 896.5,462.5 C 977.434,461.47 1058.1,465.637 1138.5,475C 1196.54,481.653 1254.54,488.486 1312.5,495.5C 1319.47,595.991 1293.63,686.991 1235,768.5C 1172.03,854.485 1092.53,920.318 996.5,966C 975.509,977.182 953.842,978.848 931.5,971C 875.709,945.808 824.709,913.474 778.5,874C 750.798,850.971 724.298,826.471 699,800.5C 646.544,740.566 614.211,670.899 602,591.5C 596.762,559.452 594.928,527.285 596.5,495C 695.911,477.227 795.911,466.394 896.5,462.5 Z"/></g>
<g><path style="opacity:1" fill="#f4f8fc" d="M 615.5,518.5 C 617.167,518.5 618.833,518.5 620.5,518.5C 620.002,591.172 636.169,659.839 669,724.5C 688.797,759.206 713.297,790.373 742.5,818C 774.362,847.246 807.696,874.579 842.5,900C 874.118,922.48 908.118,940.813 944.5,955C 959.929,957.206 974.596,954.873 988.5,948C 1051.7,918.783 1107.7,879.45 1156.5,830C 1199.93,787.308 1234.1,738.142 1259,682.5C 1280.77,630.002 1290.27,575.335 1287.5,518.5C 1289.17,518.5 1290.83,518.5 1292.5,518.5C 1295.18,614.963 1267.34,701.296 1209,777.5C 1149.68,853.545 1076.51,912.045 989.5,953C 979.302,957.454 968.635,959.954 957.5,960.5C 946.996,960.495 936.996,958.328 927.5,954C 878.605,931.075 833.605,902.409 792.5,868C 769.035,847.537 745.868,826.704 723,805.5C 665.951,744.721 631.951,672.721 621,589.5C 617.933,565.926 616.099,542.259 615.5,518.5 Z"/></g>
<g><path style="opacity:1" fill="#b1cbeb" d="M 1114.5,529.5 C 1112.4,528.588 1110.4,527.421 1108.5,526C 1101.75,525.822 1095.08,524.989 1088.5,523.5C 1080.61,525.125 1072.61,526.291 1064.5,527C 1060.75,528.811 1056.75,529.978 1052.5,530.5C 1052.29,531.086 1051.96,531.586 1051.5,532C 1045.23,533.576 1038.9,534.91 1032.5,536C 1029.37,540.122 1025.37,543.122 1020.5,545C 1015.51,545.036 1010.84,546.202 1006.5,548.5C 1008.32,546.988 1009.32,544.988 1009.5,542.5C 1014.18,542.666 1018.85,542.499 1023.5,542C 1024.6,540.325 1026.1,539.158 1028,538.5C 1028.48,537.552 1028.65,536.552 1028.5,535.5C 1034.4,533.318 1040.57,531.985 1047,531.5C 1048.87,531.291 1050.04,530.291 1050.5,528.5C 1053.78,527.676 1057.12,527.176 1060.5,527C 1061.17,526.333 1061.83,525.667 1062.5,525C 1065.82,524.502 1069.15,524.335 1072.5,524.5C 1072.5,523.5 1072.5,522.5 1072.5,521.5C 1084.52,521.168 1096.52,521.501 1108.5,522.5C 1110.49,524.832 1112.49,527.165 1114.5,529.5 Z"/></g>
<g><path style="opacity:1" fill="#fefefe" d="M 1114.5,529.5 C 1115.94,530.429 1117.27,531.595 1118.5,533C 1122.95,534.629 1127.28,536.463 1131.5,538.5C 1133.5,541.788 1135.5,545.121 1137.5,548.5C 1138.63,549.262 1139.79,549.929 1141,550.5C 1141.74,557.603 1142.24,564.603 1142.5,571.5C 1143.86,575.441 1145.7,579.107 1148,582.5C 1148.33,588.167 1148.67,593.833 1149,599.5C 1151.04,602.035 1152.87,604.702 1154.5,607.5C 1155.42,608.127 1156.42,608.461 1157.5,608.5C 1157.5,612.5 1157.5,616.5 1157.5,620.5C 1152.48,621.356 1149.65,624.356 1149,629.5C 1144.22,632.363 1139.05,633.196 1133.5,632C 1131.92,630.172 1130.59,628.172 1129.5,626C 1126.08,625.253 1122.74,625.42 1119.5,626.5C 1118.5,626.5 1117.5,626.5 1116.5,626.5C 1115.92,630.784 1117.59,633.784 1121.5,635.5C 1124.03,636.214 1126.53,636.88 1129,637.5C 1130.16,640.971 1129.33,643.638 1126.5,645.5C 1124.62,645.712 1123.28,646.712 1122.5,648.5C 1118.88,649.659 1115.21,649.825 1111.5,649C 1107.8,645.657 1103.47,644.324 1098.5,645C 1094.5,653.631 1089.17,661.131 1082.5,667.5C 1078.15,668.019 1074.32,667.019 1071,664.5C 1068.81,665.059 1068.15,666.393 1069,668.5C 1072.4,670.936 1076.24,672.269 1080.5,672.5C 1084.23,672.87 1087.9,673.537 1091.5,674.5C 1094.05,676.943 1097.05,678.61 1100.5,679.5C 1104.77,682.645 1109.1,685.812 1113.5,689C 1115.15,689.608 1116.82,690.108 1118.5,690.5C 1122.28,693.929 1126.62,696.596 1131.5,698.5C 1133.39,702.614 1135.56,706.614 1138,710.5C 1139.42,715.428 1139.75,720.428 1139,725.5C 1136.8,726.996 1134.3,727.996 1131.5,728.5C 1133.58,730.995 1135.41,733.662 1137,736.5C 1137.5,743.492 1137.67,750.492 1137.5,757.5C 1135.99,759.476 1135.16,761.809 1135,764.5C 1131.99,767.343 1129.16,770.343 1126.5,773.5C 1121.37,776.391 1115.87,778.391 1110,779.5C 1103.21,778.14 1096.37,776.807 1089.5,775.5C 1085.64,772.994 1081.97,769.994 1078.5,766.5C 1079,762.836 1077.83,759.836 1075,757.5C 1074.5,750.508 1074.33,743.508 1074.5,736.5C 1074.5,735.833 1074.83,735.5 1075.5,735.5C 1078.26,730.221 1081.93,725.387 1086.5,721C 1091.4,720.844 1094.73,718.511 1096.5,714C 1096.25,712.674 1095.58,711.674 1094.5,711C 1090.51,710.501 1086.51,710.334 1082.5,710.5C 1076.24,709.026 1069.91,707.86 1063.5,707C 1059.01,705.254 1054.68,703.254 1050.5,701C 1048.87,700.506 1047.2,700.34 1045.5,700.5C 1042.28,697.539 1038.61,695.039 1034.5,693C 1028.79,693.208 1023.96,691.375 1020,687.5C 1019.5,685.19 1019.34,682.857 1019.5,680.5C 1017.5,680.5 1015.5,680.5 1013.5,680.5C 1013.76,684.853 1014.26,689.187 1015,693.5C 1019.65,696.423 1024.82,697.923 1030.5,698C 1031.83,699.667 1031.83,701.333 1030.5,703C 1023.83,703.333 1017.17,703.667 1010.5,704C 1009.56,706.719 1009.22,709.552 1009.5,712.5C 1011.83,712.5 1014.17,712.5 1016.5,712.5C 1016.66,714.199 1016.49,715.866 1016,717.5C 1014.12,719.527 1012.95,721.86 1012.5,724.5C 1011.5,724.5 1010.5,724.5 1009.5,724.5C 1008.43,728.443 1006.6,732.11 1004,735.5C 1003.51,736.793 1003.34,738.127 1003.5,739.5C 1003.5,739.833 1003.5,740.167 1003.5,740.5C 1002.18,743.899 1002.18,747.399 1003.5,751C 1008.17,751.333 1012.83,751.667 1017.5,752C 1020.91,754.641 1024.58,756.474 1028.5,757.5C 1028.76,761.068 1030.76,762.401 1034.5,761.5C 1035.11,765.135 1035.45,768.802 1035.5,772.5C 1016.48,773.582 997.476,773.582 978.5,772.5C 978.727,769.562 977.727,767.229 975.5,765.5C 974.863,762.544 974.363,759.544 974,756.5C 973.667,739.5 973.333,722.5 973,705.5C 971.989,704.663 970.822,704.33 969.5,704.5C 964.118,702.412 958.785,700.079 953.5,697.5C 951.701,696.73 950.368,695.397 949.5,693.5C 943.849,690.659 937.849,688.659 931.5,687.5C 930.833,686.5 930.167,685.5 929.5,684.5C 929.5,683.5 929.5,682.5 929.5,681.5C 926.881,681.232 924.381,681.565 922,682.5C 921.667,685.833 921.333,689.167 921,692.5C 919.252,695.94 917.419,699.274 915.5,702.5C 911.525,706.646 907.691,710.979 904,715.5C 903.333,718.833 903.333,722.167 904,725.5C 906.614,727.056 907.947,729.39 908,732.5C 909.615,733.386 911.115,734.386 912.5,735.5C 914.14,738.149 915.807,740.816 917.5,743.5C 917.5,744.5 917.5,745.5 917.5,746.5C 919.681,746.284 921.347,747.117 922.5,749C 926.5,749.333 930.5,749.667 934.5,750C 936.771,752.782 939.437,754.949 942.5,756.5C 942.833,757.167 943.167,757.833 943.5,758.5C 944.704,760.734 945.87,763.067 947,765.5C 947.769,768.099 947.602,770.599 946.5,773C 928.146,773.766 909.813,773.599 891.5,772.5C 891.366,770.708 891.699,769.042 892.5,767.5C 893.793,765.704 895.293,764.037 897,762.5C 898.318,759.594 898.652,756.594 898,753.5C 896.871,751.859 895.371,750.859 893.5,750.5C 893.423,749.25 892.756,748.417 891.5,748C 883.673,747.568 876.006,746.234 868.5,744C 867.333,742.833 866.167,741.667 865,740.5C 865.552,729.848 865.885,719.181 866,708.5C 864.729,705.567 863.062,702.901 861,700.5C 860.433,697.832 859.933,695.166 859.5,692.5C 856.753,692.187 854.086,692.52 851.5,693.5C 848.055,698.225 843.388,700.892 837.5,701.5C 837.137,702.183 836.804,702.85 836.5,703.5C 834.685,704.63 832.685,705.296 830.5,705.5C 830.66,707.199 830.494,708.866 830,710.5C 826.249,714.422 824.082,719.088 823.5,724.5C 822.631,726.883 821.131,728.883 819,730.5C 818.333,735.5 818.333,740.5 819,745.5C 822.591,747.257 825.757,749.591 828.5,752.5C 832.604,752.923 836.271,754.257 839.5,756.5C 840.754,759.093 842.42,761.427 844.5,763.5C 844.5,766.833 844.5,770.167 844.5,773.5C 827.143,773.762 809.81,773.429 792.5,772.5C 793.285,768.36 792.119,765.027 789,762.5C 788.324,749.944 789.324,737.611 792,725.5C 792.5,715.506 792.666,705.506 792.5,695.5C 794.245,693.967 795.245,691.967 795.5,689.5C 800.5,684.167 805.5,678.833 810.5,673.5C 812.173,672.657 813.34,671.324 814,669.5C 816.037,656.018 817.203,642.351 817.5,628.5C 817.991,622.493 815.324,620.326 809.5,622C 808.944,622.383 808.611,622.883 808.5,623.5C 807.417,623.539 806.417,623.873 805.5,624.5C 803.124,628.602 800.79,632.602 798.5,636.5C 796.17,638.542 795.004,641.208 795,644.5C 794.298,657.491 793.798,670.491 793.5,683.5C 791.844,688.427 789.178,692.76 785.5,696.5C 784.504,696.414 783.671,696.748 783,697.5C 782.133,701.356 780.8,705.023 779,708.5C 773.479,713.89 769.812,720.223 768,727.5C 765.271,730.399 762.438,733.066 759.5,735.5C 756.607,735.632 754.274,736.799 752.5,739C 750.19,739.497 747.857,739.663 745.5,739.5C 745.5,738.5 745.5,737.5 745.5,736.5C 744.178,736.67 743.011,736.337 742,735.5C 740.723,731.903 740.39,728.236 741,724.5C 744.026,721.974 747.193,719.64 750.5,717.5C 751.474,715.257 751.808,712.924 751.5,710.5C 752.552,710.649 753.552,710.483 754.5,710C 758.11,705.995 760.777,701.495 762.5,696.5C 765.392,692.509 767.726,688.176 769.5,683.5C 771.173,682.657 772.34,681.324 773,679.5C 774.268,667.869 774.768,656.203 774.5,644.5C 775.856,641.423 776.689,638.09 777,634.5C 778,633.833 779,633.167 780,632.5C 784.802,618.115 793.969,607.281 807.5,600C 808.71,598.961 809.71,597.794 810.5,596.5C 810.5,595.833 810.833,595.5 811.5,595.5C 818.435,592.93 825.101,589.764 831.5,586C 840.588,582.181 849.921,579.181 859.5,577C 873.843,575.234 888.176,575.234 902.5,577C 914.53,581.491 926.53,581.657 938.5,577.5C 945.175,577.666 951.842,577.5 958.5,577C 963.404,574.432 968.737,572.766 974.5,572C 981.032,568.232 987.032,563.732 992.5,558.5C 994.989,558.702 997.323,558.202 999.5,557C 1002.2,554.412 1004.53,551.579 1006.5,548.5C 1010.84,546.202 1015.51,545.036 1020.5,545C 1025.37,543.122 1029.37,540.122 1032.5,536C 1038.9,534.91 1045.23,533.576 1051.5,532C 1051.96,531.586 1052.29,531.086 1052.5,530.5C 1056.75,529.978 1060.75,528.811 1064.5,527C 1072.61,526.291 1080.61,525.125 1088.5,523.5C 1095.08,524.989 1101.75,525.822 1108.5,526C 1110.4,527.421 1112.4,528.588 1114.5,529.5 Z"/></g>
<g><path style="opacity:1" fill="#dbe7f6" d="M 1114.5,529.5 C 1118.56,530.359 1122.56,531.526 1126.5,533C 1128.11,535.609 1130.44,536.942 1133.5,537C 1135.83,539.761 1137.49,542.927 1138.5,546.5C 1138.96,547.298 1139.62,547.631 1140.5,547.5C 1142.44,551.042 1144.1,554.709 1145.5,558.5C 1145.49,560.854 1144.66,562.854 1143,564.5C 1142.5,566.81 1142.34,569.143 1142.5,571.5C 1142.24,564.603 1141.74,557.603 1141,550.5C 1139.79,549.929 1138.63,549.262 1137.5,548.5C 1135.5,545.121 1133.5,541.788 1131.5,538.5C 1127.28,536.463 1122.95,534.629 1118.5,533C 1117.27,531.595 1115.94,530.429 1114.5,529.5 Z"/></g>
<g><path style="opacity:1" fill="#a0c0e7" d="M 1006.5,548.5 C 1004.53,551.579 1002.2,554.412 999.5,557C 997.323,558.202 994.989,558.702 992.5,558.5C 989.717,560.067 987.051,561.9 984.5,564C 983.207,564.49 981.873,564.657 980.5,564.5C 986.443,559.186 993.443,555.353 1001.5,553C 1002.41,550.585 1004.08,549.085 1006.5,548.5 Z"/></g>
<g><path style="opacity:1" fill="#c0d5ef" d="M 992.5,558.5 C 987.032,563.732 981.032,568.232 974.5,572C 968.737,572.766 963.404,574.432 958.5,577C 951.842,577.5 945.175,577.666 938.5,577.5C 943.966,576.276 949.633,575.443 955.5,575C 956.416,574.722 957.082,574.222 957.5,573.5C 963.917,572.312 970.25,570.478 976.5,568C 977.103,565.929 978.436,564.762 980.5,564.5C 981.873,564.657 983.207,564.49 984.5,564C 987.051,561.9 989.717,560.067 992.5,558.5 Z"/></g>
<g><path style="opacity:1" fill="#7faade" d="M 903.5,574.5 C 897.16,574.348 890.827,574.015 884.5,573.5C 877.281,574.935 869.948,575.602 862.5,575.5C 863.141,574.518 863.807,573.518 864.5,572.5C 877.167,571.167 889.833,571.167 902.5,572.5C 902.863,573.183 903.196,573.85 903.5,574.5 Z"/></g>
<g><path style="opacity:1" fill="#a7c4e9" d="M 1140.5,547.5 C 1141.58,547.539 1142.58,547.873 1143.5,548.5C 1146.95,554.698 1147.29,561.031 1144.5,567.5C 1146.28,575.005 1149.12,582.005 1153,588.5C 1153.5,592.486 1153.67,596.486 1153.5,600.5C 1151.92,594.325 1150.42,587.992 1149,581.5C 1146.91,579.255 1145.58,576.588 1145,573.5C 1144.29,572.619 1143.46,571.953 1142.5,571.5C 1142.34,569.143 1142.5,566.81 1143,564.5C 1144.66,562.854 1145.49,560.854 1145.5,558.5C 1144.1,554.709 1142.44,551.042 1140.5,547.5 Z"/></g>
<g><path style="opacity:1" fill="#94b7e4" d="M 957.5,573.5 C 957.082,574.222 956.416,574.722 955.5,575C 949.633,575.443 943.966,576.276 938.5,577.5C 932.722,577.311 927.055,577.978 921.5,579.5C 915.588,577.279 909.588,575.946 903.5,575.5C 909.985,575.081 916.318,575.748 922.5,577.5C 924.067,577.523 925.4,577.023 926.5,576C 936.891,575.682 947.224,574.849 957.5,573.5 Z"/></g>
<g><path style="opacity:1" fill="#bed4ee" d="M 903.5,574.5 C 903.5,574.833 903.5,575.167 903.5,575.5C 909.588,575.946 915.588,577.279 921.5,579.5C 927.055,577.978 932.722,577.311 938.5,577.5C 926.53,581.657 914.53,581.491 902.5,577C 888.176,575.234 873.843,575.234 859.5,577C 849.921,579.181 840.588,582.181 831.5,586C 825.101,589.764 818.435,592.93 811.5,595.5C 812.677,593.968 814.011,592.468 815.5,591C 818.29,590.439 820.623,589.106 822.5,587C 835.373,581.74 848.706,577.907 862.5,575.5C 869.948,575.602 877.281,574.935 884.5,573.5C 890.827,574.015 897.16,574.348 903.5,574.5 Z"/></g>
<g><path style="opacity:1" fill="#dce7f6" d="M 1142.5,571.5 C 1143.46,571.953 1144.29,572.619 1145,573.5C 1145.58,576.588 1146.91,579.255 1149,581.5C 1150.42,587.992 1151.92,594.325 1153.5,600.5C 1155.44,602.825 1156.77,605.492 1157.5,608.5C 1156.42,608.461 1155.42,608.127 1154.5,607.5C 1152.87,604.702 1151.04,602.035 1149,599.5C 1148.67,593.833 1148.33,588.167 1148,582.5C 1145.7,579.107 1143.86,575.441 1142.5,571.5 Z"/></g>
<g><path style="opacity:1" fill="#b6ceec" d="M 810.5,596.5 C 809.71,597.794 808.71,598.961 807.5,600C 793.969,607.281 784.802,618.115 780,632.5C 779,633.167 778,633.833 777,634.5C 776.689,638.09 775.856,641.423 774.5,644.5C 774.392,640.753 774.892,637.086 776,633.5C 781.995,622.22 789.495,611.886 798.5,602.5C 802.274,599.946 806.274,597.946 810.5,596.5 Z"/></g>
<g><path style="opacity:1" fill="#acc8ea" d="M 810.5,673.5 C 805.5,678.833 800.5,684.167 795.5,689.5C 795.733,687.938 796.4,686.605 797.5,685.5C 802.209,680.957 806.375,675.957 810,670.5C 810.667,667.833 811.333,665.167 812,662.5C 812.074,649.663 812.907,636.996 814.5,624.5C 811.436,624.144 808.769,624.977 806.5,627C 804.161,630.556 801.495,633.723 798.5,636.5C 800.79,632.602 803.124,628.602 805.5,624.5C 806.417,623.873 807.417,623.539 808.5,623.5C 813.753,621.138 816.42,622.805 816.5,628.5C 814.829,638.712 813.996,649.045 814,659.5C 813.757,664.474 812.59,669.141 810.5,673.5 Z"/></g>
<g><path style="opacity:1" fill="#6f9fdb" d="M 797.5,685.5 C 796.414,685.38 795.747,684.713 795.5,683.5C 796.251,669.152 797.251,654.819 798.5,640.5C 798.5,639.167 798.5,637.833 798.5,636.5C 801.495,633.723 804.161,630.556 806.5,627C 808.769,624.977 811.436,624.144 814.5,624.5C 812.907,636.996 812.074,649.663 812,662.5C 811.333,665.167 810.667,667.833 810,670.5C 806.375,675.957 802.209,680.957 797.5,685.5 Z"/></g>
<g><path style="opacity:1" fill="#c5d8f0" d="M 1157.5,620.5 C 1156.25,622.178 1154.59,623.511 1152.5,624.5C 1151.07,626.22 1150.23,628.22 1150,630.5C 1148.22,631.639 1146.39,632.639 1144.5,633.5C 1137.36,634.931 1131.36,633.097 1126.5,628C 1124.53,627.505 1122.53,627.338 1120.5,627.5C 1120.35,628.552 1120.52,629.552 1121,630.5C 1123.31,631.397 1125.14,632.73 1126.5,634.5C 1120.6,634.934 1118.27,632.267 1119.5,626.5C 1122.74,625.42 1126.08,625.253 1129.5,626C 1130.59,628.172 1131.92,630.172 1133.5,632C 1139.05,633.196 1144.22,632.363 1149,629.5C 1149.65,624.356 1152.48,621.356 1157.5,620.5 Z"/></g>
<g><path style="opacity:1" fill="#e1ebf7" d="M 1119.5,626.5 C 1118.27,632.267 1120.6,634.934 1126.5,634.5C 1131.35,636.206 1132.68,639.539 1130.5,644.5C 1129.26,645.246 1127.93,645.579 1126.5,645.5C 1129.33,643.638 1130.16,640.971 1129,637.5C 1126.53,636.88 1124.03,636.214 1121.5,635.5C 1117.59,633.784 1115.92,630.784 1116.5,626.5C 1117.5,626.5 1118.5,626.5 1119.5,626.5 Z"/></g>
<g><path style="opacity:1" fill="#9dbee6" d="M 1144.5,633.5 C 1144.08,634.222 1143.42,634.722 1142.5,635C 1139.18,635.498 1135.85,635.665 1132.5,635.5C 1132.67,637.848 1133,640.182 1133.5,642.5C 1133.61,644.374 1132.94,645.874 1131.5,647C 1126.8,648.936 1121.96,650.436 1117,651.5C 1113.7,651.309 1110.87,650.142 1108.5,648C 1104.09,646.738 1100.26,647.572 1097,650.5C 1095.73,654.736 1094.06,658.736 1092,662.5C 1088.14,664.345 1084.98,667.012 1082.5,670.5C 1086.05,670.896 1089.05,672.229 1091.5,674.5C 1087.9,673.537 1084.23,672.87 1080.5,672.5C 1080.39,670.486 1081.06,668.82 1082.5,667.5C 1089.17,661.131 1094.5,653.631 1098.5,645C 1103.47,644.324 1107.8,645.657 1111.5,649C 1115.21,649.825 1118.88,649.659 1122.5,648.5C 1123.28,646.712 1124.62,645.712 1126.5,645.5C 1127.93,645.579 1129.26,645.246 1130.5,644.5C 1132.68,639.539 1131.35,636.206 1126.5,634.5C 1125.14,632.73 1123.31,631.397 1121,630.5C 1120.52,629.552 1120.35,628.552 1120.5,627.5C 1122.53,627.338 1124.53,627.505 1126.5,628C 1131.36,633.097 1137.36,634.931 1144.5,633.5 Z"/></g>
<g><path style="opacity:1" fill="#dce8f6" d="M 810.5,673.5 C 812.59,669.141 813.757,664.474 814,659.5C 813.996,649.045 814.829,638.712 816.5,628.5C 816.42,622.805 813.753,621.138 808.5,623.5C 808.611,622.883 808.944,622.383 809.5,622C 815.324,620.326 817.991,622.493 817.5,628.5C 817.203,642.351 816.037,656.018 814,669.5C 813.34,671.324 812.173,672.657 810.5,673.5 Z"/></g>
<g><path style="opacity:1" fill="#bed4ee" d="M 798.5,636.5 C 798.5,637.833 798.5,639.167 798.5,640.5C 797.188,642.743 796.522,645.41 796.5,648.5C 795.917,660.355 794.917,672.021 793.5,683.5C 793.798,670.491 794.298,657.491 795,644.5C 795.004,641.208 796.17,638.542 798.5,636.5 Z"/></g>
<g><path style="opacity:1" fill="#cddef2" d="M 1082.5,667.5 C 1081.06,668.82 1080.39,670.486 1080.5,672.5C 1076.24,672.269 1072.4,670.936 1069,668.5C 1068.15,666.393 1068.81,665.059 1071,664.5C 1074.32,667.019 1078.15,668.019 1082.5,667.5 Z"/></g>
<g><path style="opacity:1" fill="#c6d9f0" d="M 774.5,644.5 C 774.768,656.203 774.268,667.869 773,679.5C 772.34,681.324 771.173,682.657 769.5,683.5C 770.072,681.745 770.906,680.078 772,678.5C 771.851,666.789 772.684,655.456 774.5,644.5 Z"/></g>
<g><path style="opacity:1" fill="#9ebee6" d="M 1100.5,679.5 C 1103.41,679.575 1106.07,680.409 1108.5,682C 1111.75,685.102 1115.09,687.935 1118.5,690.5C 1116.82,690.108 1115.15,689.608 1113.5,689C 1109.1,685.812 1104.77,682.645 1100.5,679.5 Z"/></g>
<g><path style="opacity:1" fill="#93b7e3" d="M 798.5,640.5 C 797.251,654.819 796.251,669.152 795.5,683.5C 795.747,684.713 796.414,685.38 797.5,685.5C 796.4,686.605 795.733,687.938 795.5,689.5C 795.245,691.967 794.245,693.967 792.5,695.5C 791.833,701.5 791.167,707.5 790.5,713.5C 790.5,707.5 790.5,701.5 790.5,695.5C 789.5,695.5 788.5,695.5 787.5,695.5C 786.385,701.032 784.218,706.032 781,710.5C 779.629,712.041 778.129,713.375 776.5,714.5C 779.499,708.532 782.499,702.532 785.5,696.5C 789.178,692.76 791.844,688.427 793.5,683.5C 794.917,672.021 795.917,660.355 796.5,648.5C 796.522,645.41 797.188,642.743 798.5,640.5 Z"/></g>
<g><path style="opacity:1" fill="#d3e1f4" d="M 929.5,684.5 C 927.833,684.5 926.167,684.5 924.5,684.5C 924.662,686.527 924.495,688.527 924,690.5C 922.139,692.888 920.806,695.554 920,698.5C 918.629,700.041 917.129,701.375 915.5,702.5C 917.419,699.274 919.252,695.94 921,692.5C 921.333,689.167 921.667,685.833 922,682.5C 924.381,681.565 926.881,681.232 929.5,681.5C 929.5,682.5 929.5,683.5 929.5,684.5 Z"/></g>
<g><path style="opacity:1" fill="#aec9ea" d="M 769.5,683.5 C 767.726,688.176 765.392,692.509 762.5,696.5C 759.61,697.899 758.11,700.232 758,703.5C 754.056,706.573 751.223,710.24 749.5,714.5C 749.201,712.396 749.534,710.396 750.5,708.5C 754.383,706.128 756.883,702.795 758,698.5C 761.654,695.2 763.987,691.2 765,686.5C 766.271,685.117 767.771,684.117 769.5,683.5 Z"/></g>
<g><path style="opacity:1" fill="#cadcf1" d="M 931.5,687.5 C 937.849,688.659 943.849,690.659 949.5,693.5C 950.368,695.397 951.701,696.73 953.5,697.5C 949.375,696.811 945.375,695.644 941.5,694C 939.433,692.016 936.933,690.849 934,690.5C 932.69,689.87 931.856,688.87 931.5,687.5 Z"/></g>
<g><path style="opacity:1" fill="#cfdff3" d="M 1045.5,700.5 C 1042.32,699.174 1038.98,698.674 1035.5,699C 1034.59,700.699 1034.26,702.533 1034.5,704.5C 1029.66,704.896 1025.16,706.23 1021,708.5C 1020.11,715.721 1017.28,722.055 1012.5,727.5C 1010.87,728.625 1009.37,729.959 1008,731.5C 1006.64,734.334 1005.14,737 1003.5,739.5C 1003.34,738.127 1003.51,736.793 1004,735.5C 1006.6,732.11 1008.43,728.443 1009.5,724.5C 1010.5,724.5 1011.5,724.5 1012.5,724.5C 1012.95,721.86 1014.12,719.527 1016,717.5C 1016.49,715.866 1016.66,714.199 1016.5,712.5C 1014.17,712.5 1011.83,712.5 1009.5,712.5C 1009.22,709.552 1009.56,706.719 1010.5,704C 1017.17,703.667 1023.83,703.333 1030.5,703C 1031.83,701.333 1031.83,699.667 1030.5,698C 1024.82,697.923 1019.65,696.423 1015,693.5C 1014.26,689.187 1013.76,684.853 1013.5,680.5C 1015.5,680.5 1017.5,680.5 1019.5,680.5C 1019.34,682.857 1019.5,685.19 1020,687.5C 1023.96,691.375 1028.79,693.208 1034.5,693C 1038.61,695.039 1042.28,697.539 1045.5,700.5 Z"/></g>
<g><path style="opacity:1" fill="#8eb4e2" d="M 969.5,705.5 C 970.117,705.611 970.617,705.944 971,706.5C 971.219,724.857 971.719,743.191 972.5,761.5C 971.542,761.047 970.708,760.381 970,759.5C 969.5,741.503 969.333,723.503 969.5,705.5 Z"/></g>
<g><path style="opacity:1" fill="#b0caeb" d="M 893.5,750.5 C 884.507,750.127 875.841,748.294 867.5,745C 863.36,742.05 861.693,738.05 862.5,733C 864.693,723.86 864.86,714.693 863,705.5C 860.042,702.653 858.209,699.153 857.5,695C 853.048,694.751 849.381,696.418 846.5,700C 843.101,701.177 839.767,702.344 836.5,703.5C 836.804,702.85 837.137,702.183 837.5,701.5C 843.388,700.892 848.055,698.225 851.5,693.5C 854.086,692.52 856.753,692.187 859.5,692.5C 859.933,695.166 860.433,697.832 861,700.5C 863.062,702.901 864.729,705.567 866,708.5C 865.885,719.181 865.552,729.848 865,740.5C 866.167,741.667 867.333,742.833 868.5,744C 876.006,746.234 883.673,747.568 891.5,748C 892.756,748.417 893.423,749.25 893.5,750.5 Z"/></g>
<g><path style="opacity:1" fill="#bad1ed" d="M 785.5,696.5 C 782.499,702.532 779.499,708.532 776.5,714.5C 775.542,714.953 774.708,715.619 774,716.5C 771.483,722.229 768.816,727.896 766,733.5C 762.379,735.398 759.212,737.898 756.5,741C 750.483,743.688 745.15,742.855 740.5,738.5C 739.614,737.675 739.281,736.675 739.5,735.5C 741.553,736.534 743.22,738.034 744.5,740C 748.167,740.667 751.833,740.667 755.5,740C 757.041,738.629 758.375,737.129 759.5,735.5C 762.438,733.066 765.271,730.399 768,727.5C 769.812,720.223 773.479,713.89 779,708.5C 780.8,705.023 782.133,701.356 783,697.5C 783.671,696.748 784.504,696.414 785.5,696.5 Z"/></g>
<g><path style="opacity:1" fill="#99bbe5" d="M 1136.5,702.5 C 1142.36,708.576 1144.53,715.91 1143,724.5C 1141.52,727.297 1139.69,729.797 1137.5,732C 1137.93,733.434 1138.76,734.601 1140,735.5C 1140.83,744.186 1140.67,752.853 1139.5,761.5C 1135.15,765.854 1130.81,770.188 1126.5,774.5C 1126.5,774.167 1126.5,773.833 1126.5,773.5C 1129.16,770.343 1131.99,767.343 1135,764.5C 1135.16,761.809 1135.99,759.476 1137.5,757.5C 1138.66,750.345 1138.82,743.012 1138,735.5C 1136.76,734.601 1135.93,733.434 1135.5,732C 1137.61,730.163 1139.45,727.996 1141,725.5C 1141.66,720.442 1141.33,715.442 1140,710.5C 1138.54,707.968 1137.38,705.301 1136.5,702.5 Z"/></g>
<g><path style="opacity:1" fill="#cadcf1" d="M 1118.5,690.5 C 1122.44,692.152 1126.44,693.819 1130.5,695.5C 1133.27,697.259 1135.27,699.593 1136.5,702.5C 1137.38,705.301 1138.54,707.968 1140,710.5C 1141.33,715.442 1141.66,720.442 1141,725.5C 1139.45,727.996 1137.61,730.163 1135.5,732C 1135.93,733.434 1136.76,734.601 1138,735.5C 1138.82,743.012 1138.66,750.345 1137.5,757.5C 1137.67,750.492 1137.5,743.492 1137,736.5C 1135.41,733.662 1133.58,730.995 1131.5,728.5C 1134.3,727.996 1136.8,726.996 1139,725.5C 1139.75,720.428 1139.42,715.428 1138,710.5C 1135.56,706.614 1133.39,702.614 1131.5,698.5C 1126.62,696.596 1122.28,693.929 1118.5,690.5 Z"/></g>
<g><path style="opacity:1" fill="#a6c3e8" d="M 1045.5,700.5 C 1047.2,700.34 1048.87,700.506 1050.5,701C 1054.68,703.254 1059.01,705.254 1063.5,707C 1069.91,707.86 1076.24,709.026 1082.5,710.5C 1084.7,711.165 1087.03,711.832 1089.5,712.5C 1092.1,716.796 1090.77,719.296 1085.5,720C 1080.5,724.197 1077.16,729.364 1075.5,735.5C 1074.83,735.5 1074.5,735.833 1074.5,736.5C 1073.73,737.263 1073.23,738.263 1073,739.5C 1072.33,745.167 1072.33,750.833 1073,756.5C 1073.62,758.116 1074.62,759.449 1076,760.5C 1076.49,761.793 1076.66,763.127 1076.5,764.5C 1075.95,762.111 1074.45,760.445 1072,759.5C 1067.97,743.038 1072.14,729.538 1084.5,719C 1085.79,718.51 1087.13,718.343 1088.5,718.5C 1088.5,716.833 1088.5,715.167 1088.5,713.5C 1083.14,713.33 1077.81,712.83 1072.5,712C 1071.64,711.311 1070.98,710.478 1070.5,709.5C 1061.4,708.248 1053.07,705.248 1045.5,700.5 Z"/></g>
<g><path style="opacity:1" fill="#b6ceec" d="M 915.5,702.5 C 914.115,705.978 911.948,708.978 909,711.5C 908.258,714.553 907.091,717.387 905.5,720C 907.461,725.415 909.794,730.582 912.5,735.5C 911.115,734.386 909.615,733.386 908,732.5C 907.947,729.39 906.614,727.056 904,725.5C 903.333,722.167 903.333,718.833 904,715.5C 907.691,710.979 911.525,706.646 915.5,702.5 Z"/></g>
<g><path style="opacity:1" fill="#cadcf2" d="M 969.5,705.5 C 969.5,705.167 969.5,704.833 969.5,704.5C 970.822,704.33 971.989,704.663 973,705.5C 973.333,722.5 973.667,739.5 974,756.5C 974.363,759.544 974.863,762.544 975.5,765.5C 975.5,766.5 975.5,767.5 975.5,768.5C 974.833,767.167 974.167,765.833 973.5,764.5C 973.737,763.209 973.404,762.209 972.5,761.5C 971.719,743.191 971.219,724.857 971,706.5C 970.617,705.944 970.117,705.611 969.5,705.5 Z"/></g>
<g><path style="opacity:1" fill="#dee9f6" d="M 1082.5,710.5 C 1086.51,710.334 1090.51,710.501 1094.5,711C 1095.58,711.674 1096.25,712.674 1096.5,714C 1094.73,718.511 1091.4,720.844 1086.5,721C 1081.93,725.387 1078.26,730.221 1075.5,735.5C 1077.16,729.364 1080.5,724.197 1085.5,720C 1090.77,719.296 1092.1,716.796 1089.5,712.5C 1087.03,711.832 1084.7,711.165 1082.5,710.5 Z"/></g>
<g><path style="opacity:1" fill="#d4e2f4" d="M 762.5,696.5 C 760.777,701.495 758.11,705.995 754.5,710C 753.552,710.483 752.552,710.649 751.5,710.5C 751.808,712.924 751.474,715.257 750.5,717.5C 747.193,719.64 744.026,721.974 741,724.5C 740.39,728.236 740.723,731.903 742,735.5C 743.011,736.337 744.178,736.67 745.5,736.5C 745.5,737.5 745.5,738.5 745.5,739.5C 747.857,739.663 750.19,739.497 752.5,739C 754.274,736.799 756.607,735.632 759.5,735.5C 758.375,737.129 757.041,738.629 755.5,740C 751.833,740.667 748.167,740.667 744.5,740C 743.22,738.034 741.553,736.534 739.5,735.5C 738.85,735.196 738.183,734.863 737.5,734.5C 735.435,725.14 739.101,719.307 748.5,717C 749.252,716.329 749.586,715.496 749.5,714.5C 751.223,710.24 754.056,706.573 758,703.5C 758.11,700.232 759.61,697.899 762.5,696.5 Z"/></g>
<g><path style="opacity:1" fill="#a7c4e8" d="M 836.5,703.5 C 833.766,706.625 831.266,709.958 829,713.5C 828.747,718.181 827.414,722.514 825,726.5C 824.246,731.017 823.412,735.517 822.5,740C 822.482,742.442 823.149,744.608 824.5,746.5C 821.746,744.829 820.413,742.329 820.5,739C 821.426,734.133 822.426,729.299 823.5,724.5C 824.082,719.088 826.249,714.422 830,710.5C 830.494,708.866 830.66,707.199 830.5,705.5C 832.685,705.296 834.685,704.63 836.5,703.5 Z"/></g>
<g><path style="opacity:1" fill="#8db2e2" d="M 912.5,735.5 C 913.721,736.028 914.887,736.695 916,737.5C 916.346,739.848 917.513,741.681 919.5,743C 923.871,743.172 928.204,743.672 932.5,744.5C 935.062,746.424 937.062,748.758 938.5,751.5C 937.373,750.878 936.373,750.045 935.5,749C 929.261,747.64 923.261,745.807 917.5,743.5C 915.807,740.816 914.14,738.149 912.5,735.5 Z"/></g>
<g><path style="opacity:1" fill="#d3e1f4" d="M 917.5,743.5 C 923.261,745.807 929.261,747.64 935.5,749C 936.373,750.045 937.373,750.878 938.5,751.5C 939.833,753.167 941.167,754.833 942.5,756.5C 939.437,754.949 936.771,752.782 934.5,750C 930.5,749.667 926.5,749.333 922.5,749C 921.347,747.117 919.681,746.284 917.5,746.5C 917.5,745.5 917.5,744.5 917.5,743.5 Z"/></g>
<g><path style="opacity:1" fill="#d3e2f4" d="M 1003.5,740.5 C 1003.23,743.119 1003.56,745.619 1004.5,748C 1009.5,748.333 1014.5,748.667 1019.5,749C 1024.37,753.378 1029.37,757.545 1034.5,761.5C 1030.76,762.401 1028.76,761.068 1028.5,757.5C 1024.58,756.474 1020.91,754.641 1017.5,752C 1012.83,751.667 1008.17,751.333 1003.5,751C 1002.18,747.399 1002.18,743.899 1003.5,740.5 Z"/></g>
<g><path style="opacity:1" fill="#dee9f6" d="M 823.5,724.5 C 822.426,729.299 821.426,734.133 820.5,739C 820.413,742.329 821.746,744.829 824.5,746.5C 827.958,749.4 831.958,751.567 836.5,753C 837.71,754.039 838.71,755.206 839.5,756.5C 836.271,754.257 832.604,752.923 828.5,752.5C 825.757,749.591 822.591,747.257 819,745.5C 818.333,740.5 818.333,735.5 819,730.5C 821.131,728.883 822.631,726.883 823.5,724.5 Z"/></g>
<g><path style="opacity:1" fill="#cedff2" d="M 792.5,695.5 C 792.666,705.506 792.5,715.506 792,725.5C 789.324,737.611 788.324,749.944 789,762.5C 792.119,765.027 793.285,768.36 792.5,772.5C 793.091,773.151 793.757,773.818 794.5,774.5C 811.487,775.499 828.487,775.833 845.5,775.5C 845.817,771.298 845.483,767.298 844.5,763.5C 842.42,761.427 840.754,759.093 839.5,756.5C 847.257,761.171 849.59,767.838 846.5,776.5C 828.83,776.667 811.164,776.5 793.5,776C 792.023,774.188 790.69,772.355 789.5,770.5C 786.856,766.097 785.523,761.264 785.5,756C 786.999,741.664 788.666,727.497 790.5,713.5C 791.167,707.5 791.833,701.5 792.5,695.5 Z"/></g>
<g><path style="opacity:1" fill="#a7c4e8" d="M 893.5,750.5 C 895.371,750.859 896.871,751.859 898,753.5C 898.652,756.594 898.318,759.594 897,762.5C 895.293,764.037 893.793,765.704 892.5,767.5C 890.516,767.484 889.516,768.484 889.5,770.5C 889.752,772.073 890.418,773.406 891.5,774.5C 890.504,774.586 889.671,774.252 889,773.5C 888.333,771.5 888.333,769.5 889,767.5C 897.041,763.409 898.541,757.742 893.5,750.5 Z"/></g>
<g><path style="opacity:1" fill="#cedef2" d="M 1074.5,736.5 C 1074.33,743.508 1074.5,750.508 1075,757.5C 1077.83,759.836 1079,762.836 1078.5,766.5C 1077.17,766.5 1076.5,765.833 1076.5,764.5C 1076.66,763.127 1076.49,761.793 1076,760.5C 1074.62,759.449 1073.62,758.116 1073,756.5C 1072.33,750.833 1072.33,745.167 1073,739.5C 1073.23,738.263 1073.73,737.263 1074.5,736.5 Z"/></g>
<g><path style="opacity:1" fill="#81abdf" d="M 824.5,746.5 C 826.801,747.06 829.134,747.56 831.5,748C 833.1,749.815 835.1,750.982 837.5,751.5C 840.543,755.544 844.209,758.877 848.5,761.5C 850.447,764.155 851.447,767.155 851.5,770.5C 851.709,773.454 851.042,776.121 849.5,778.5C 830.544,779.654 811.544,779.82 792.5,779C 791.748,778.329 791.414,777.496 791.5,776.5C 792.289,776.783 792.956,777.283 793.5,778C 810.833,778.667 828.167,778.667 845.5,778C 846.056,777.617 846.389,777.117 846.5,776.5C 849.59,767.838 847.257,761.171 839.5,756.5C 838.71,755.206 837.71,754.039 836.5,753C 831.958,751.567 827.958,749.4 824.5,746.5 Z"/></g>
<g><path style="opacity:1" fill="#e8eff9" d="M 844.5,763.5 C 845.483,767.298 845.817,771.298 845.5,775.5C 828.487,775.833 811.487,775.499 794.5,774.5C 793.757,773.818 793.091,773.151 792.5,772.5C 809.81,773.429 827.143,773.762 844.5,773.5C 844.5,770.167 844.5,766.833 844.5,763.5 Z"/></g>
<g><path style="opacity:1" fill="#e4edf8" d="M 943.5,758.5 C 945.934,759.771 947.434,761.771 948,764.5C 948.499,768.152 948.665,771.818 948.5,775.5C 930.12,775.807 911.787,775.474 893.5,774.5C 892.833,774.5 892.167,774.5 891.5,774.5C 890.418,773.406 889.752,772.073 889.5,770.5C 889.516,768.484 890.516,767.484 892.5,767.5C 891.699,769.042 891.366,770.708 891.5,772.5C 909.813,773.599 928.146,773.766 946.5,773C 947.602,770.599 947.769,768.099 947,765.5C 945.87,763.067 944.704,760.734 943.5,758.5 Z"/></g>
<g><path style="opacity:1" fill="#e1ebf7" d="M 1034.5,761.5 C 1035.46,761.953 1036.29,762.619 1037,763.5C 1037.5,766.817 1037.67,770.15 1037.5,773.5C 1018.67,776.244 999.666,777.077 980.5,776C 977.8,774.143 976.134,771.643 975.5,768.5C 975.5,767.5 975.5,766.5 975.5,765.5C 977.727,767.229 978.727,769.562 978.5,772.5C 997.476,773.582 1016.48,773.582 1035.5,772.5C 1035.45,768.802 1035.11,765.135 1034.5,761.5 Z"/></g>
<g><path style="opacity:1" fill="#bed4ee" d="M 942.5,756.5 C 946.733,758.062 949.067,761.062 949.5,765.5C 950.044,769.673 949.377,773.506 947.5,777C 929.824,777.833 912.157,777.666 894.5,776.5C 894.137,775.817 893.804,775.15 893.5,774.5C 911.787,775.474 930.12,775.807 948.5,775.5C 948.665,771.818 948.499,768.152 948,764.5C 947.434,761.771 945.934,759.771 943.5,758.5C 943.167,757.833 942.833,757.167 942.5,756.5 Z"/></g>
<g><path style="opacity:1" fill="#abc7ea" d="M 973.5,764.5 C 974.167,765.833 974.833,767.167 975.5,768.5C 976.134,771.643 977.8,774.143 980.5,776C 999.666,777.077 1018.67,776.244 1037.5,773.5C 1037.39,774.117 1037.06,774.617 1036.5,775C 1017.93,777.128 999.259,777.961 980.5,777.5C 975.138,774.803 972.805,770.47 973.5,764.5 Z"/></g>
<g><path style="opacity:1" fill="#9bbde6" d="M 789.5,770.5 C 790.69,772.355 792.023,774.188 793.5,776C 811.164,776.5 828.83,776.667 846.5,776.5C 846.389,777.117 846.056,777.617 845.5,778C 828.167,778.667 810.833,778.667 793.5,778C 792.956,777.283 792.289,776.783 791.5,776.5C 789.926,774.898 789.259,772.898 789.5,770.5 Z"/></g>
<g><path style="opacity:1" fill="#94b8e4" d="M 949.5,765.5 C 950.822,769.566 950.822,773.733 949.5,778C 930.824,778.833 912.158,778.666 893.5,777.5C 892.807,776.482 892.141,775.482 891.5,774.5C 892.167,774.5 892.833,774.5 893.5,774.5C 893.804,775.15 894.137,775.817 894.5,776.5C 912.157,777.666 929.824,777.833 947.5,777C 949.377,773.506 950.044,769.673 949.5,765.5 Z"/></g>
<g><path style="opacity:1" fill="#8fb5e3" d="M 1012.5,727.5 C 1010.16,730.684 1007.99,734.017 1006,737.5C 1004.85,740.393 1004.35,743.393 1004.5,746.5C 1010.18,746.334 1015.84,746.501 1021.5,747C 1023.5,749.333 1025.5,751.667 1027.5,754C 1031.09,755.113 1034.42,756.613 1037.5,758.5C 1039.58,764.253 1039.91,770.086 1038.5,776C 1025.36,777.268 1012.2,778.101 999,778.5C 992.657,778.5 986.491,778.166 980.5,777.5C 999.259,777.961 1017.93,777.128 1036.5,775C 1037.06,774.617 1037.39,774.117 1037.5,773.5C 1037.67,770.15 1037.5,766.817 1037,763.5C 1036.29,762.619 1035.46,761.953 1034.5,761.5C 1029.37,757.545 1024.37,753.378 1019.5,749C 1014.5,748.667 1009.5,748.333 1004.5,748C 1003.56,745.619 1003.23,743.119 1003.5,740.5C 1003.5,740.167 1003.5,739.833 1003.5,739.5C 1005.14,737 1006.64,734.334 1008,731.5C 1009.37,729.959 1010.87,728.625 1012.5,727.5 Z"/></g>
<g><path style="opacity:1" fill="#c6d9f0" d="M 1126.5,773.5 C 1126.5,773.833 1126.5,774.167 1126.5,774.5C 1123.01,776.746 1119.34,778.746 1115.5,780.5C 1111.89,781.489 1108.23,781.823 1104.5,781.5C 1100.35,779.83 1095.85,778.496 1091,777.5C 1089.97,777.164 1089.47,776.497 1089.5,775.5C 1096.37,776.807 1103.21,778.14 1110,779.5C 1115.87,778.391 1121.37,776.391 1126.5,773.5 Z"/></g>
<g><path style="opacity:1" fill="#9abbe5" d="M 1078.5,766.5 C 1081.97,769.994 1085.64,772.994 1089.5,775.5C 1089.47,776.497 1089.97,777.164 1091,777.5C 1095.85,778.496 1100.35,779.83 1104.5,781.5C 1099.3,781.812 1094.3,780.978 1089.5,779C 1085.29,775.29 1081.62,771.123 1078.5,766.5 Z"/></g>
<g><path style="opacity:1" fill="#fdfdfe" d="M 888.5,814.5 C 889.833,814.5 891.167,814.5 892.5,814.5C 892.333,832.503 892.5,850.503 893,868.5C 895.153,871.124 897.987,872.124 901.5,871.5C 901.5,872.833 901.5,874.167 901.5,875.5C 891.167,875.5 880.833,875.5 870.5,875.5C 870.5,874.167 870.5,872.833 870.5,871.5C 874.21,871.775 877.043,870.442 879,867.5C 879.667,853.167 879.667,838.833 879,824.5C 876.435,822.821 873.602,822.154 870.5,822.5C 870.33,821.178 870.663,820.011 871.5,819C 877.655,818.88 883.322,817.38 888.5,814.5 Z"/></g>
<g><path style="opacity:1" fill="#fafbfd" d="M 924.5,814.5 C 939.572,813.387 948.405,820.387 951,835.5C 952.137,846.427 950.137,856.76 945,866.5C 938.577,874.869 930.077,878.036 919.5,876C 913.946,874.47 911.779,870.97 913,865.5C 915.153,863.556 917.653,863.056 920.5,864C 922.257,866.846 924.257,869.512 926.5,872C 931.904,872.618 935.07,870.118 936,864.5C 936.499,860.514 936.666,856.514 936.5,852.5C 914.883,857.002 906.383,848.336 911,826.5C 914.187,820.995 918.687,816.995 924.5,814.5 Z"/></g>
<g><path style="opacity:1" fill="#fafbfd" d="M 976.5,814.5 C 982.892,813.791 988.892,814.957 994.5,818C 999.681,822.567 1000.85,828.067 998,834.5C 995.833,836.667 993.667,838.833 991.5,841C 1000.79,845.757 1003.95,853.257 1001,863.5C 998.762,870.07 994.262,874.237 987.5,876C 979.918,877.548 972.918,876.215 966.5,872C 958.49,861.284 960.49,852.784 972.5,846.5C 963.293,839.728 961.46,831.394 967,821.5C 969.79,818.535 972.957,816.202 976.5,814.5 Z"/></g>
<g><path style="opacity:1" fill="#fcfdfe" d="M 1037.5,814.5 C 1039.83,814.5 1042.17,814.5 1044.5,814.5C 1044.5,826.833 1044.5,839.167 1044.5,851.5C 1047.83,851.5 1051.17,851.5 1054.5,851.5C 1054.5,853.5 1054.5,855.5 1054.5,857.5C 1051.17,857.5 1047.83,857.5 1044.5,857.5C 1044.13,861.967 1044.63,866.3 1046,870.5C 1048.38,871.435 1050.88,871.768 1053.5,871.5C 1053.5,872.833 1053.5,874.167 1053.5,875.5C 1043.5,875.5 1033.5,875.5 1023.5,875.5C 1023.5,874.167 1023.5,872.833 1023.5,871.5C 1026.12,871.768 1028.62,871.435 1031,870.5C 1032.37,866.3 1032.87,861.967 1032.5,857.5C 1024.5,857.5 1016.5,857.5 1008.5,857.5C 1008.34,855.473 1008.5,853.473 1009,851.5C 1019,839.467 1028.5,827.134 1037.5,814.5 Z"/></g>
<g><path style="opacity:1" fill="#6e9eda" d="M 927.5,818.5 C 932.385,817.856 935.552,819.856 937,824.5C 937.667,831.5 937.667,838.5 937,845.5C 931.477,851.392 927.143,850.725 924,843.5C 923.333,836.833 923.333,830.167 924,823.5C 924.997,821.677 926.164,820.01 927.5,818.5 Z"/></g>
<g><path style="opacity:1" fill="#6f9fda" d="M 978.5,818.5 C 988.876,818.876 992.709,824.209 990,834.5C 989.477,836.223 988.477,837.556 987,838.5C 981.119,837.235 976.452,834.235 973,829.5C 972.176,824.482 974.009,820.815 978.5,818.5 Z"/></g>
<g><path style="opacity:1" fill="#709fdb" d="M 1031.5,829.5 C 1032.49,836.648 1032.82,843.981 1032.5,851.5C 1026.49,851.666 1020.49,851.499 1014.5,851C 1020.38,843.958 1026.05,836.792 1031.5,829.5 Z"/></g>
<g><path style="opacity:1" fill="#6e9fda" d="M 976.5,848.5 C 983.097,849.709 988.264,853.043 992,858.5C 993.37,869.425 988.537,873.925 977.5,872C 969.847,864.568 969.513,856.735 976.5,848.5 Z"/></g>
</svg>
